<svg width="10" height="10" viewBox="0 0 10 10" fill="none" xmlns="http://www.w3.org/2000/svg">
<path d="M1.39309 5.20303C1.0744 4.88818 0.557703 4.88818 0.239016 5.20303C-0.0796719 5.51789 -0.0796719 6.02838 0.239016 6.34324L3.70123 9.76385C4.01991 10.0787 4.53661 10.0787 4.8553 9.76385C5.17398 9.449 5.17398 8.93851 4.8553 8.62365L1.39309 5.20303Z" fill="#EDC5A2"/>
<path d="M9.89053 1.20951C10.1159 0.823883 9.98215 0.33079 9.59184 0.108151C9.20153 -0.114488 8.70244 0.0176362 8.47709 0.403258L3.58079 8.78202C3.35544 9.16764 3.48917 9.66074 3.87948 9.88338C4.2698 10.106 4.76888 9.97389 4.99423 9.58827L9.89053 1.20951Z" fill="#EDC5A2"/>
</svg>
